<svg width="150" height="60" viewBox="0 0 150 60" fill="none" xmlns="http://www.w3.org/2000/svg">
<path fill-rule="evenodd" clip-rule="evenodd" d="M6.8595 23.0246C6.73838 23.1161 6.70763 23.2211 6.822 23.1502C6.867 23.1225 6.8775 23.133 6.84975 23.178C6.82538 23.2173 6.73988 23.25 6.66038 23.25C6.5805 23.25 6.47925 23.2935 6.435 23.3467C6.39113 23.3996 6.3135 23.4273 6.2625 23.4075C6.183 23.3771 6.18188 23.388 6.25463 23.4828C6.3015 23.544 6.31725 23.5751 6.2895 23.5518C6.1995 23.4768 5.87513 23.6313 5.87513 23.7495C5.87513 23.8158 5.81325 23.877 5.72325 23.8995C5.6295 23.9231 5.5635 23.9906 5.55113 24.0757C5.53913 24.159 5.47425 24.2268 5.38688 24.2475C5.30775 24.2658 5.24438 24.3022 5.24625 24.3281C5.27475 24.6881 5.244 24.804 5.12625 24.7815C5.05838 24.7683 4.98638 24.7841 4.9665 24.8163C4.94625 24.8486 4.96538 24.8748 5.00888 24.8748C5.07 24.8748 5.07075 24.8917 5.01263 24.9498C4.97138 24.9911 4.93763 25.1741 4.93763 25.3563C4.93763 25.6567 4.9245 25.6878 4.797 25.692C4.66275 25.6961 4.662 25.6987 4.78125 25.7501C4.87875 25.7917 4.88363 25.8045 4.80375 25.8082C4.74713 25.8105 4.6845 25.8783 4.66425 25.959C4.575 26.3152 4.62413 54.0375 4.7145 54.1608C4.7745 54.2433 4.78238 54.3048 4.73925 54.3566C4.69275 54.4128 4.71038 54.426 4.80675 54.4072C4.92675 54.3843 4.938 54.4125 4.9455 54.7537C4.94963 54.9577 4.95675 55.1542 4.96088 55.1898C4.971 55.2746 5.13638 55.3755 5.20013 55.3361C5.2425 55.3098 5.28338 55.6743 5.256 55.8326C5.25075 55.8611 5.27588 55.8663 5.31113 55.8446C5.346 55.8228 5.37488 55.8367 5.37488 55.875C5.37488 55.9132 5.403 55.9275 5.4375 55.9061C5.472 55.8847 5.52863 55.9421 5.5635 56.0336C5.598 56.1247 5.6805 56.2136 5.7465 56.2308C5.87213 56.2638 5.96025 56.4123 5.90625 56.5001C5.88863 56.5282 5.94338 56.544 6.02775 56.5346C6.17325 56.5188 6.28613 56.6411 6.22163 56.7453C6.20588 56.7708 6.234 56.7915 6.28388 56.7915C6.33413 56.7915 6.37575 56.7611 6.37688 56.724C6.378 56.6868 6.4185 56.7082 6.4665 56.772C6.51488 56.8353 6.58425 56.8687 6.62138 56.8458C6.65813 56.8233 6.70463 56.8466 6.7245 56.8983C6.74625 56.9553 6.80138 56.9767 6.86438 56.9531C6.954 56.9197 6.957 56.9283 6.88575 57.0165C6.80888 57.1106 7.11975 57.1188 10.9646 57.1233L15.1268 57.1282L15.1103 55.0485L15.0938 52.9687L12.4219 52.9526L9.75 52.9361V47.0306V41.1251H15.9026C19.6583 41.1251 22.0691 41.1476 22.0913 41.1836C22.1366 41.2567 22.3751 41.2432 22.3751 41.1675C22.3751 41.1367 22.4171 41.1277 22.4689 41.1476C22.5829 41.1915 22.5908 41.118 22.4843 41.0032C22.422 40.9361 22.422 40.9278 22.4843 40.9631C22.5274 40.9875 22.5975 40.9852 22.6406 40.9586C22.6838 40.9316 22.761 40.9087 22.8124 40.908C22.8641 40.9068 22.9099 40.8641 22.9148 40.8123C22.9193 40.761 22.9264 40.6856 22.9301 40.6451C22.9343 40.6042 23.0006 40.5622 23.0783 40.5513C23.172 40.5378 23.2125 40.4947 23.2005 40.422C23.1904 40.3616 23.2084 40.3125 23.2406 40.3125C23.2729 40.3125 23.3936 40.2228 23.5091 40.1137C23.6243 40.0042 23.6809 39.9375 23.6344 39.9648C23.565 40.0061 23.5635 39.99 23.6254 39.8741C23.6854 39.7623 23.7124 39.7511 23.7559 39.8197C23.799 39.8883 23.8106 39.8831 23.8114 39.7953C23.8121 39.7346 23.8838 39.6525 23.9704 39.6127C24.0851 39.5606 24.1065 39.5268 24.0488 39.4901C23.9854 39.45 23.985 39.4391 24.0473 39.4383C24.2066 39.4365 24.1545 25.7422 23.9948 25.6215C23.8931 25.5446 23.8639 25.446 23.8549 25.1527C23.8448 24.81 23.8328 24.7818 23.703 24.7886C23.5898 24.7946 23.5609 24.7612 23.5549 24.6168C23.5504 24.5182 23.5399 24.4095 23.5313 24.375C23.5226 24.3405 23.5121 24.2887 23.508 24.2598C23.5035 24.231 23.4281 24.1747 23.3404 24.1346C23.2523 24.0948 23.1971 24.0348 23.2178 24.0015C23.2384 23.9685 23.1863 23.9238 23.1023 23.9028C23.0183 23.8815 22.9354 23.811 22.9181 23.7453C22.9013 23.6801 22.8139 23.5987 22.7246 23.5646C22.6316 23.5293 22.5626 23.4543 22.5626 23.3887C22.5626 23.2983 22.5071 23.271 22.2986 23.259C22.0294 23.2428 21.9746 23.2203 21.9611 23.1198C21.9566 23.0883 21.9495 23.0355 21.9454 23.0021C21.9319 22.8993 6.99525 22.9215 6.8595 23.0246ZM19.0624 32.25V37.0623H14.4064H9.75V32.25V27.4376H14.4064H19.0624V32.25Z" fill="#CE1212"/>
<path fill-rule="evenodd" clip-rule="evenodd" d="M12.8329 41.2343C14.5455 41.2437 17.3299 41.2437 19.0204 41.2343C20.7109 41.2253 19.3095 41.2174 15.9064 41.2174C12.5033 41.2174 11.1203 41.2253 12.8329 41.2343ZM19.4843 52.9808C19.3661 53.0115 19.3118 56.8662 19.4269 57.0477C19.4663 57.1095 19.9804 57.123 21.7853 57.1103L24.0938 57.0938L24.1103 55.0545L24.1268 53.0149L23.9854 52.977C23.8238 52.9339 19.6511 52.9369 19.4843 52.9808Z" fill="#1B1717"/>
<path fill-rule="evenodd" clip-rule="evenodd" d="M45.75 12.7489V22.9354L40.9009 22.9519L36.0514 22.9688L35.9378 23.1094C35.8493 23.2181 35.7589 23.25 35.5369 23.25C35.2725 23.25 35.25 23.2624 35.25 23.4064C35.25 23.5496 35.2271 23.5624 34.9699 23.5624C34.7235 23.5624 34.6853 23.5811 34.6508 23.7188C34.6163 23.8556 34.5776 23.8751 34.3369 23.8751C34.1093 23.8751 34.0624 23.8954 34.0624 23.9933C34.0624 24.0671 34.0039 24.126 33.9064 24.1508C33.8078 24.1755 33.75 24.234 33.75 24.3094C33.75 24.3855 33.6994 24.4361 33.6094 24.4489C33.519 24.4616 33.4616 24.519 33.4489 24.6094C33.4376 24.6866 33.3859 24.75 33.3334 24.75C33.2018 24.75 32.8751 25.1115 32.8751 25.2566C32.8751 25.3414 32.8305 25.3751 32.7188 25.3751C32.607 25.3751 32.5624 25.4089 32.5624 25.4933C32.5624 25.5671 32.5039 25.626 32.4064 25.6508C32.3055 25.6759 32.25 25.7336 32.25 25.8139C32.25 25.8818 32.2238 25.9376 32.1919 25.9376C32.0659 25.9376 31.9376 26.145 31.9376 26.3483C31.9376 26.5196 31.9129 26.5624 31.8146 26.5624C31.7145 26.5624 31.6841 26.6201 31.6504 26.8751C31.6174 27.1238 31.5851 27.1875 31.4921 27.1875C31.389 27.1875 31.3751 27.2393 31.3751 27.6206C31.3751 28.0223 31.3646 28.0553 31.2345 28.0736L31.0939 28.0939L31.0781 40.3594L31.0624 52.6249H31.2188C31.3706 52.6249 31.3751 52.6369 31.3751 53.0685C31.3751 53.4593 31.3898 53.5155 31.5 53.5444C31.5874 53.5673 31.6249 53.6295 31.6249 53.7521C31.6249 54.0086 31.6856 54.1249 31.8191 54.1249C31.9121 54.1249 31.9376 54.1706 31.9376 54.3386C31.9376 54.633 31.9928 54.75 32.1315 54.75C32.2163 54.75 32.25 54.7946 32.25 54.9064C32.25 55.0313 32.2811 55.0624 32.4064 55.0624C32.532 55.0624 32.5624 55.0935 32.5624 55.2218C32.5624 55.3095 32.628 55.443 32.7079 55.5188C32.7878 55.5941 32.8714 55.7063 32.8939 55.767C32.9164 55.8281 32.9801 55.8953 33.036 55.9166C33.0919 55.938 33.2036 56.022 33.2846 56.103C33.3656 56.1836 33.5033 56.25 33.591 56.25C33.7189 56.25 33.75 56.2804 33.75 56.4064C33.75 56.5313 33.7811 56.5624 33.9064 56.5624C34.02 56.5624 34.0624 56.5961 34.0624 56.6854C34.0624 56.7855 34.1201 56.8159 34.3751 56.8496C34.6238 56.8826 34.6875 56.9149 34.6875 57.0079C34.6875 57.108 34.737 57.1249 35.0269 57.1249C35.3141 57.1249 35.3846 57.1489 35.4889 57.2813L35.6119 57.4376H37.965H40.3181L40.4745 57.2813C40.6264 57.1294 40.6556 57.1249 41.5088 57.1249C42.3341 57.1249 42.3885 57.1174 42.4193 57C42.4496 56.8838 42.5051 56.8751 43.2105 56.874C44.0903 56.8733 44.25 56.8433 44.25 56.6801C44.25 56.5714 44.307 56.5624 45 56.5624H45.75V56.9299C45.75 57.4706 45.5951 57.441 48.3484 57.4226L50.7758 57.4061L50.8193 57.2501C50.8429 57.1643 50.8654 44.8241 50.8688 29.8283L50.8751 2.56238H48.3124H45.75V12.7489ZM96.3593 22.6699C96.24 22.6879 96.1875 22.7329 96.1875 22.8165C96.1875 22.9309 96.135 22.9376 95.2459 22.9376C94.308 22.9376 94.0624 22.983 94.0624 23.1566C94.0624 23.2294 93.9004 23.2496 93.2033 23.2639C92.3798 23.2804 92.3411 23.2871 92.2819 23.4218C92.2226 23.5575 92.1911 23.5624 91.3901 23.5624C90.5651 23.5624 90.5595 23.5635 90.4886 23.7188C90.4226 23.8631 90.3851 23.8751 89.9899 23.8751H89.5624V23.4056V22.9361L87.0158 22.9523L84.4688 22.9688V40.143C84.4688 55.341 84.4796 57.324 84.5625 57.3765C84.7421 57.4901 89.4803 57.4541 89.5245 57.3386C89.5455 57.2843 89.5624 50.6749 89.5624 42.651V28.0624H91.0271C92.493 28.0624 92.8125 28.0238 92.8125 27.8453C92.8125 27.762 93.0615 27.75 94.8075 27.75C96.9154 27.75 97.0001 27.7425 97.0001 27.5558C97.0001 27.4444 97.0616 27.4376 98.0625 27.4376H99.1249L99.1313 42.2655C99.1346 50.421 99.1571 57.1643 99.1808 57.2501L99.2243 57.4061H101.722H104.219L104.235 42.7343L104.25 28.0624H105.649C107.199 28.0624 107.44 28.0369 107.484 27.8655C107.513 27.7564 107.62 27.75 109.441 27.75C111.363 27.75 111.687 27.7185 111.687 27.5329C111.687 27.4511 111.843 27.4376 112.781 27.4376H113.875L113.891 42.4219L113.906 57.4061H116.406H118.906V41.1251V24.8438L118.766 24.7819C118.652 24.7324 118.625 24.6701 118.625 24.4613C118.625 24.261 118.599 24.195 118.509 24.1718C118.434 24.1519 118.377 24.06 118.349 23.9138C118.324 23.7769 118.248 23.6483 118.16 23.5905C118.079 23.5376 117.999 23.4394 117.981 23.3723C117.956 23.2759 117.895 23.25 117.693 23.25C117.462 23.25 117.438 23.235 117.438 23.0936C117.438 22.9583 117.41 22.9376 117.23 22.9376C117.087 22.9376 116.975 22.887 116.872 22.7779L116.722 22.6181L113.884 22.6373L111.047 22.6564L110.953 22.797C110.864 22.9313 110.822 22.9376 109.997 22.9376C109.104 22.9376 108.813 22.9909 108.813 23.1548C108.813 23.2346 108.693 23.25 108.067 23.25C107.285 23.25 107 23.3081 107 23.4671C107 23.5474 106.877 23.5624 106.216 23.5624C105.463 23.5624 105.426 23.5688 105.276 23.7188C105.043 23.9513 103.397 23.9648 103.364 23.7345C103.351 23.6441 103.293 23.5868 103.203 23.5736C103.101 23.5594 103.062 23.5118 103.062 23.4019C103.062 23.2826 103.03 23.25 102.911 23.25C102.801 23.25 102.753 23.211 102.739 23.1094C102.722 22.9894 102.675 22.9661 102.422 22.9496C102.183 22.9343 102.125 22.9084 102.125 22.8169C102.125 22.7396 102.063 22.6905 101.93 22.6643C101.718 22.6219 96.642 22.6271 96.3593 22.6699ZM59.9531 22.9789C59.91 22.9961 59.8751 23.0629 59.8751 23.1266C59.8751 23.2211 59.8193 23.2466 59.5781 23.2624C59.3246 23.2785 59.2785 23.3018 59.2613 23.4218C59.247 23.5238 59.1994 23.5624 59.0895 23.5624C58.9703 23.5624 58.9376 23.5954 58.9376 23.7143C58.9376 23.8245 58.8986 23.8718 58.797 23.8864C58.7066 23.8991 58.6493 23.9565 58.6361 24.0469C58.6234 24.1373 58.5731 24.1875 58.4955 24.1875C58.3943 24.1875 58.3751 24.2325 58.3751 24.4688C58.3751 24.7271 58.3624 24.75 58.2188 24.75C58.0661 24.75 58.0624 24.7605 58.0624 25.2188C58.0624 25.6774 58.059 25.6875 57.906 25.6875H57.7496L57.7654 40.047L57.7811 54.4061L57.9218 54.4264C58.0523 54.4448 58.0624 54.4778 58.0624 54.8783C58.0624 55.2866 58.071 55.3121 58.2188 55.3493C58.3556 55.3838 58.3751 55.4224 58.3751 55.6631C58.3751 55.8908 58.3954 55.9376 58.4933 55.9376C58.5671 55.9376 58.626 55.9961 58.6508 56.0936C58.6755 56.1923 58.734 56.25 58.8094 56.25C58.8855 56.25 58.9361 56.3006 58.9489 56.3906C58.9616 56.481 59.019 56.5384 59.1094 56.5511C59.1986 56.5639 59.25 56.6145 59.25 56.6899C59.25 56.7848 59.3119 56.8163 59.5624 56.8496C59.8114 56.8826 59.8751 56.9149 59.8751 57.0079C59.8751 57.117 59.9374 57.1249 60.777 57.1249C61.6646 57.1249 61.6793 57.1271 61.6988 57.2655L61.7186 57.4061H67.5H73.2814L73.3013 57.2655C73.3208 57.1275 73.3365 57.1249 74.1979 57.1249C75.0064 57.1249 75.0765 57.1159 75.1054 57.0064C75.1275 56.9209 75.2156 56.8755 75.4189 56.8451C75.6203 56.8148 75.7106 56.769 75.7324 56.6861C75.7489 56.622 75.8231 56.5609 75.897 56.5504C75.9799 56.5388 76.0388 56.4788 76.0508 56.3944C76.0628 56.3093 76.1216 56.2504 76.2071 56.2384C76.2934 56.226 76.3511 56.1671 76.3639 56.0783C76.3766 55.9879 76.4269 55.9376 76.5045 55.9376C76.6054 55.9376 76.6249 55.8926 76.6249 55.6605C76.6249 55.4209 76.644 55.3811 76.7655 55.3639C76.8855 55.3466 76.9091 55.3001 76.9253 55.05C76.9399 54.8239 76.9721 54.7474 77.0655 54.7178C77.2538 54.6581 77.2545 54.6431 77.2361 50.5313L77.2189 46.6564L74.7574 46.6399C72.9923 46.6283 72.2715 46.6436 72.2104 46.6943C72.1403 46.7528 72.1249 47.3183 72.1249 49.8514V52.9376H67.5H62.8751V47.0936V41.25H69.2141C75.8809 41.25 75.75 41.2549 75.75 40.9999C75.75 40.9703 75.8134 40.9373 75.8906 40.9264C75.981 40.9133 76.0384 40.8559 76.0511 40.7655C76.0635 40.6789 76.1145 40.6249 76.1846 40.6249C76.2469 40.6249 76.3133 40.5668 76.332 40.4955C76.3504 40.4239 76.4239 40.3504 76.4955 40.332C76.5668 40.3133 76.6249 40.248 76.6249 40.1869C76.6249 40.1209 76.6879 40.0601 76.7813 40.0369C76.8731 40.0136 76.9376 39.9529 76.9376 39.8888C76.9376 39.8288 77.0006 39.7519 77.0783 39.7181L77.2189 39.6563L77.2358 32.6561C77.2541 25.2803 77.2564 25.3751 77.0614 25.3751C76.9549 25.3751 76.9376 25.3324 76.9376 25.0691C76.9376 24.8246 76.9065 24.7335 76.7824 24.6158C76.6969 24.5351 76.6268 24.4073 76.626 24.3323C76.6256 24.2513 76.5743 24.1796 76.5 24.1564C76.4314 24.1343 76.3751 24.0623 76.3751 23.9959C76.3751 23.9085 76.3316 23.8751 76.2188 23.8751C76.0939 23.8751 76.0624 23.8436 76.0624 23.7188C76.0624 23.595 76.0309 23.5624 75.9105 23.5624C75.8006 23.5624 75.753 23.5238 75.7388 23.4218C75.7219 23.3021 75.675 23.2785 75.4256 23.2624C75.1789 23.2463 75.1298 23.2219 75.1133 23.106L75.0938 22.9688L67.5626 22.9579C63.4204 22.9519 59.9963 22.9613 59.9531 22.9789ZM128.036 23.0359C127.982 23.0899 127.938 23.1585 127.938 23.1885C127.938 23.2185 127.818 23.2515 127.672 23.262C127.451 23.2781 127.403 23.3051 127.386 23.4218C127.372 23.5238 127.325 23.5624 127.214 23.5624C127.094 23.5624 127.062 23.595 127.062 23.7188C127.062 23.8436 127.031 23.8751 126.906 23.8751C126.791 23.8751 126.75 23.9081 126.75 24.0015C126.75 24.0791 126.689 24.1511 126.594 24.1875C126.463 24.2374 126.438 24.2876 126.438 24.4984C126.438 24.7031 126.416 24.75 126.32 24.75C126.179 24.75 126.127 24.9116 126.126 25.3594C126.125 25.6455 126.109 25.6875 126 25.6875C125.876 25.6875 125.875 25.7291 125.875 40.0624C125.875 54.396 125.876 54.4376 126 54.4376C126.11 54.4376 126.125 54.4793 126.125 54.7853C126.125 55.1621 126.203 55.3751 126.342 55.3751C126.401 55.3751 126.437 55.4629 126.45 55.6406C126.465 55.8615 126.492 55.9095 126.609 55.9264C126.711 55.9406 126.75 55.9883 126.75 56.0981C126.75 56.2185 126.783 56.25 126.906 56.25C127.031 56.25 127.062 56.2811 127.062 56.4064C127.062 56.5313 127.094 56.5624 127.219 56.5624C127.332 56.5624 127.375 56.5961 127.375 56.6835C127.375 56.7791 127.434 56.8136 127.654 56.8466C127.85 56.8763 127.945 56.9239 127.971 57.0068C128.005 57.1151 128.08 57.1249 128.864 57.1249C129.692 57.1249 129.722 57.1298 129.782 57.2655L129.844 57.4061H135.625H141.406L141.426 57.2655C141.446 57.1275 141.462 57.1249 142.313 57.1249C143.108 57.1249 143.182 57.1151 143.217 57.0068C143.243 56.9239 143.337 56.8763 143.533 56.8466C143.754 56.8136 143.813 56.7791 143.813 56.6835C143.813 56.5961 143.856 56.5624 143.969 56.5624C144.094 56.5624 144.125 56.5313 144.125 56.4064C144.125 56.2811 144.156 56.25 144.281 56.25C144.406 56.25 144.438 56.2189 144.438 56.0936C144.438 55.9688 144.469 55.9376 144.594 55.9376C144.737 55.9376 144.75 55.9144 144.75 55.6605C144.75 55.4209 144.769 55.3811 144.891 55.3639C145.011 55.3466 145.034 55.3005 145.051 55.0399C145.066 54.804 145.097 54.7294 145.188 54.7054C145.373 54.657 145.382 54.4418 145.362 50.4064L145.344 46.6564L142.938 46.6388C141.614 46.6294 140.468 46.6369 140.391 46.6556L140.25 46.6898V49.8139V52.9376H135.594H130.938V47.0936V41.25L137.234 41.2493C143.787 41.2481 143.813 41.2474 143.813 41.0554C143.813 40.9714 143.858 40.9376 143.969 40.9376C144.094 40.9376 144.125 40.9061 144.125 40.7813C144.125 40.6564 144.156 40.6249 144.281 40.6249C144.396 40.6249 144.438 40.5919 144.438 40.4985C144.438 40.4209 144.498 40.3489 144.594 40.3125C144.68 40.2799 144.75 40.212 144.75 40.1621C144.75 40.1119 144.805 40.0534 144.872 40.0324C144.939 40.011 145.011 39.9401 145.031 39.8749C145.052 39.8096 145.121 39.7399 145.183 39.72C145.372 39.6604 145.375 39.5483 145.375 32.5624C145.375 25.5919 145.371 25.4411 145.178 25.3905C145.087 25.3669 145.062 25.3001 145.062 25.0781C145.062 24.8569 145.029 24.7643 144.906 24.6506C144.819 24.57 144.75 24.4361 144.75 24.348C144.75 24.2314 144.709 24.1796 144.594 24.1508C144.496 24.126 144.438 24.0671 144.438 23.9933C144.438 23.9089 144.393 23.8751 144.281 23.8751C144.156 23.8751 144.125 23.8436 144.125 23.7188C144.125 23.607 144.091 23.5624 144.007 23.5624C143.933 23.5624 143.874 23.5039 143.849 23.4064C143.815 23.2688 143.777 23.25 143.53 23.25C143.297 23.25 143.25 23.2301 143.25 23.1315C143.25 23.0666 143.205 22.9961 143.151 22.9755C142.893 22.8765 128.136 22.9354 128.036 23.0359ZM23.5624 24.651C23.5624 24.7054 23.607 24.75 23.6614 24.75C23.772 24.75 23.7525 24.6154 23.6366 24.5768C23.5958 24.5633 23.5624 24.5966 23.5624 24.651ZM72.1249 32.25V37.0624H67.5H62.8751V32.25V27.4376H67.5H72.1249V32.25ZM140.25 32.25V37.0624H135.594H130.938V32.25V27.4376H135.594H140.25V32.25ZM45.75 40.1805V52.6106L42.5156 52.6335C38.3138 52.6631 37.9376 52.6515 37.9376 52.4944C37.9376 52.3999 37.8923 52.3751 37.7201 52.3751C37.5574 52.3751 37.4771 52.3358 37.4006 52.2188C37.3444 52.1329 37.245 52.0624 37.1801 52.0624C37.0965 52.0624 37.0624 52.0178 37.0624 51.9064C37.0624 51.7811 37.0313 51.75 36.9064 51.75C36.7751 51.75 36.75 51.7204 36.75 51.5678C36.75 51.3038 36.6904 51.1875 36.5558 51.1875C36.4556 51.1875 36.4376 51.1399 36.4376 50.8751C36.4376 50.5834 36.4271 50.5624 36.2813 50.5624H36.1249V40.2255V29.8886L36.2813 29.8493C36.4174 29.8151 36.4376 29.7758 36.4376 29.5448C36.4376 29.3299 36.4643 29.268 36.5783 29.2181C36.6866 29.1701 36.723 29.0959 36.738 28.8908C36.7549 28.656 36.7748 28.6249 36.9098 28.6249C37.0208 28.6249 37.0624 28.5908 37.0624 28.5C37.0624 28.4194 37.104 28.3751 37.1801 28.3751C37.245 28.3751 37.3444 28.3046 37.4006 28.2188C37.4771 28.1018 37.5574 28.0624 37.7201 28.0624C37.8398 28.0624 37.9376 28.0331 37.9376 27.9975C37.9376 27.7556 37.9496 27.7549 41.922 27.7523L45.75 27.75V40.1805Z" fill="#1B1717"/>
<path fill-rule="evenodd" clip-rule="evenodd" d="M6.22443 23.4146C6.20718 23.4593 6.22705 23.5155 6.26868 23.5391C6.30993 23.5631 6.32343 23.5598 6.29793 23.532C6.2728 23.5039 6.29755 23.448 6.35305 23.4071C6.44455 23.3404 6.44455 23.3333 6.35493 23.3333C6.30018 23.3333 6.24168 23.37 6.22443 23.4146ZM23.8869 25.5038C23.9019 25.5491 23.951 25.5983 23.9964 25.6133C24.0433 25.629 24.0665 25.6054 24.0508 25.5585C24.0358 25.5135 23.9867 25.4644 23.9417 25.4494C23.8948 25.4336 23.8712 25.4569 23.8869 25.5038ZM4.6408 26.4686C4.64155 26.6063 4.6543 26.655 4.6693 26.5774C4.6843 26.4998 4.68393 26.3873 4.66818 26.3273C4.65243 26.2676 4.64043 26.3314 4.6408 26.4686ZM23.6285 39.8689C23.5749 39.9694 23.5835 39.9829 23.6844 39.9566C23.7553 39.9379 23.7902 39.8895 23.7703 39.8377C23.726 39.7222 23.7043 39.7267 23.6285 39.8689ZM22.2384 41.0947C22.2208 41.1127 19.3985 41.1266 15.9673 41.1255C12.5357 41.1247 9.7423 41.1379 9.75955 41.1551C9.82405 41.2196 22.2092 41.1907 22.274 41.1262C22.3089 41.091 22.3228 41.0625 22.3044 41.0625C22.286 41.0625 22.2564 41.0771 22.2384 41.0947ZM4.63968 53.625C4.63968 53.7454 4.65243 53.7945 4.66818 53.7345C4.68393 53.6741 4.68393 53.5759 4.66818 53.5155C4.65243 53.4555 4.63968 53.5046 4.63968 53.625Z" fill="#CE1212"/>
</svg>
