<svg width="47" height="82" viewBox="0 0 47 82" fill="none" xmlns="http://www.w3.org/2000/svg">
<path fill-rule="evenodd" clip-rule="evenodd" d="M7.17879 0.0901826C7.21199 0.144235 7.0579 0.179 6.78495 0.179C6.53823 0.179 6.31148 0.219371 6.28098 0.268714C6.25047 0.318057 6.12936 0.358428 6.01183 0.358428C5.89431 0.358428 5.77319 0.3988 5.74269 0.448143C5.71219 0.497486 5.56842 0.537857 5.42331 0.537857C5.2782 0.537857 5.15955 0.578228 5.15955 0.627571C5.15955 0.676914 5.07881 0.717285 4.98012 0.717285C4.88143 0.717285 4.80069 0.757657 4.80069 0.807C4.80069 0.856342 4.70739 0.896714 4.59323 0.896714C4.47929 0.896714 4.29919 0.977457 4.19333 1.07614C4.08746 1.17483 3.93854 1.25557 3.8625 1.25557C3.78647 1.25557 3.72412 1.2872 3.72412 1.326C3.72412 1.36457 3.6131 1.46191 3.47741 1.54221C3.18247 1.71693 1.92983 2.91215 1.92961 3.01935C1.92961 3.06085 1.8085 3.23601 1.66069 3.40871C1.51289 3.58141 1.39177 3.77318 1.39177 3.83486C1.39155 3.89654 1.35118 3.947 1.30183 3.947C1.25249 3.947 1.21212 4.00644 1.21212 4.07888C1.21212 4.15132 1.13138 4.35453 1.03269 4.53014C0.934005 4.70576 0.853263 4.92668 0.853263 5.0211C0.853263 5.1153 0.812891 5.21735 0.763548 5.24786C0.714206 5.27836 0.673834 5.39947 0.673834 5.517C0.673834 5.63452 0.633462 5.75564 0.584119 5.78614C0.534776 5.81665 0.494406 5.9806 0.494406 6.15038C0.494406 6.32017 0.454034 6.459 0.404692 6.459C0.355349 6.459 0.314977 6.61802 0.314977 6.81247C0.314977 7.00693 0.274605 7.19107 0.225262 7.22157C0.173228 7.25364 0.135548 7.74573 0.135548 8.39324C0.135548 9.00711 0.10527 9.50928 0.068263 9.50928C0.0312558 9.50928 0.000976562 23.6797 0.000976562 40.999C0.000976562 58.3183 0.0312558 72.4887 0.068263 72.4887C0.10527 72.4887 0.135548 72.9909 0.135548 73.6048C0.135548 74.2523 0.173228 74.7444 0.225262 74.7764C0.274605 74.8069 0.314977 74.9911 0.314977 75.1855C0.314977 75.38 0.355349 75.539 0.404692 75.539C0.454034 75.539 0.494406 75.6778 0.494406 75.8476C0.494406 76.0174 0.534776 76.1814 0.584119 76.2119C0.633462 76.2424 0.673834 76.3635 0.673834 76.481C0.673834 76.5985 0.714206 76.7196 0.763548 76.7501C0.812891 76.7806 0.853263 76.8827 0.853263 76.9769C0.853263 77.0713 0.934005 77.2922 1.03269 77.4679C1.13138 77.6435 1.21212 77.8467 1.21212 77.9191C1.21212 77.9916 1.25249 78.051 1.30183 78.051C1.35118 78.051 1.39155 78.1015 1.39177 78.1631C1.39177 78.2248 1.51289 78.4166 1.66069 78.5893C1.8085 78.762 1.92961 78.9372 1.92961 78.9786C1.92983 79.0859 3.18247 80.2811 3.47741 80.4558C3.6131 80.5361 3.72412 80.6334 3.72412 80.672C3.72412 80.7108 3.78647 80.7424 3.8625 80.7424C3.93854 80.7424 4.08746 80.8232 4.19333 80.9219C4.29919 81.0205 4.47929 81.1013 4.59323 81.1013C4.70739 81.1013 4.80069 81.1417 4.80069 81.191C4.80069 81.2403 4.88143 81.2807 4.98012 81.2807C5.07881 81.2807 5.15955 81.3211 5.15955 81.3704C5.15955 81.4198 5.2782 81.4601 5.42331 81.4601C5.56842 81.4601 5.71219 81.5005 5.74269 81.5499C5.77319 81.5992 5.89431 81.6396 6.01183 81.6396C6.12936 81.6396 6.25047 81.6799 6.28098 81.7293C6.31148 81.7786 6.53823 81.819 6.78495 81.819C7.05544 81.819 7.21199 81.854 7.17924 81.9071C7.1438 81.9643 10.2849 81.996 16.1901 81.9975L25.2555 82V77.2445V72.4887H18.2578H11.2601V57.82V43.151L26.7358 43.1741C35.2475 43.1867 42.2115 43.1667 42.2115 43.1297C42.2115 43.0927 42.2586 43.0624 42.3161 43.0624C42.3737 43.0624 42.8983 42.5679 43.4819 41.9634C45.4857 39.8879 45.6122 39.7643 45.6756 39.8208C45.7106 39.852 45.7133 39.8325 45.6819 39.7771C45.6503 39.7219 45.7651 39.5322 45.9367 39.3554L46.2487 39.0343V23.9578C46.2487 13.9665 46.2184 8.88128 46.159 8.88128C46.1054 8.88128 46.0693 8.53746 46.0693 8.029C46.0693 7.52054 46.0332 7.17671 45.9795 7.17671C45.9302 7.17671 45.8898 6.97732 45.8898 6.73352C45.8898 6.48973 45.8495 6.26522 45.8001 6.23471C45.7508 6.20421 45.7104 6.0831 45.7104 5.96557C45.7104 5.84805 45.67 5.72693 45.6207 5.69643C45.5713 5.66592 45.531 5.54481 45.531 5.42729C45.531 5.30976 45.4906 5.18865 45.4413 5.15814C45.3919 5.12764 45.3515 5.00653 45.3515 4.889C45.3515 4.77147 45.3112 4.65036 45.2618 4.61986C45.2125 4.58935 45.1721 4.49358 45.1721 4.40723C45.1721 4.32066 45.1015 4.16972 45.0151 4.07148C44.8222 3.85213 44.6338 3.52938 44.6338 3.41791C44.6338 3.37238 44.4125 3.10458 44.1418 2.82288C43.871 2.54118 43.6755 2.26889 43.7071 2.21798C43.7385 2.16684 43.7253 2.14935 43.6773 2.17896C43.6293 2.20856 43.49 2.14015 43.3677 2.02689C42.9434 1.63327 42.2921 1.17012 41.9612 1.02635C41.7782 0.94673 41.5582 0.84468 41.4725 0.799374C41.3868 0.754293 41.2556 0.717285 41.181 0.717285C41.1063 0.717285 41.0453 0.676914 41.0453 0.627571C41.0453 0.578228 40.967 0.537857 40.8712 0.537857C40.7754 0.537857 40.672 0.497486 40.6415 0.448143C40.611 0.3988 40.4471 0.358428 40.2773 0.358428C40.1075 0.358428 39.9687 0.318057 39.9687 0.268714C39.9687 0.219371 39.7693 0.179 39.5255 0.179C39.2817 0.179 39.057 0.138404 39.0265 0.0888368C38.9895 0.0289525 33.6243 -0.000877495 23.0472 1.96476e-05C12.5717 0.00091679 7.14268 0.0318683 7.17879 0.0901826ZM34.9447 21.7553V33.9116H23.1024H11.2601V21.7553V9.599H23.1024H34.9447V21.7553Z" fill="#CE1212"/>
<path fill-rule="evenodd" clip-rule="evenodd" d="M2.50682 2.26484L2.24329 2.55641L2.53486 2.29287C2.80669 2.04728 2.8677 1.97327 2.79839 1.97327C2.78292 1.97327 2.65171 2.10447 2.50682 2.26484ZM45.9341 39.3841C45.7924 39.5322 45.7069 39.6533 45.7444 39.6533C45.8155 39.6533 45.9393 39.536 46.147 39.2715C46.3426 39.023 46.2163 39.0896 45.9341 39.3841ZM35.4824 77.2436V81.9984H40.7756H46.0687V77.2436V72.4887H40.7756H35.4824V77.2436ZM2.28814 79.5144C2.28814 79.5299 2.41935 79.6611 2.57971 79.806L2.87129 80.0695L2.60775 79.778C2.36216 79.5061 2.28814 79.4451 2.28814 79.5144Z" fill="#1B1717"/>
<path fill-rule="evenodd" clip-rule="evenodd" d="M17.1583 9.66629C20.4273 9.6793 25.7765 9.6793 29.0455 9.66629C32.3144 9.65328 29.6398 9.64252 23.1019 9.64252C16.564 9.64252 13.8893 9.65328 17.1583 9.66629ZM0 40.999C0 58.2443 0.0103166 65.2992 0.0228766 56.6766C0.0354366 48.0539 0.0354366 33.9441 0.0228766 25.3214C0.0103166 16.6988 0 23.7537 0 40.999ZM18.9526 43.2194C23.2084 43.2322 30.1725 43.2322 34.4283 43.2194C38.6841 43.2066 35.2021 43.1959 26.6905 43.1959C18.1788 43.1959 14.6968 43.2066 18.9526 43.2194Z" fill="#CE1212"/>
<path fill-rule="evenodd" clip-rule="evenodd" d="M17.1583 9.66629C20.4273 9.6793 25.7765 9.6793 29.0455 9.66629C32.3144 9.65328 29.6398 9.64252 23.1019 9.64252C16.564 9.64252 13.8893 9.65328 17.1583 9.66629ZM0 40.999C0 58.2443 0.0103166 65.2992 0.0228766 56.6766C0.0354366 48.0539 0.0354366 33.9441 0.0228766 25.3214C0.0103166 16.6988 0 23.7537 0 40.999ZM18.9526 43.2194C23.2084 43.2322 30.1725 43.2322 34.4283 43.2194C38.6841 43.2066 35.2021 43.1959 26.6905 43.1959C18.1788 43.1959 14.6968 43.2066 18.9526 43.2194Z" fill="#CE1212"/>
<path fill-rule="evenodd" clip-rule="evenodd" d="M17.1583 9.66629C20.4273 9.6793 25.7765 9.6793 29.0455 9.66629C32.3144 9.65328 29.6398 9.64252 23.1019 9.64252C16.564 9.64252 13.8893 9.65328 17.1583 9.66629ZM0 40.999C0 58.2443 0.0103166 65.2992 0.0228766 56.6766C0.0354366 48.0539 0.0354366 33.9441 0.0228766 25.3214C0.0103166 16.6988 0 23.7537 0 40.999ZM18.9526 43.2194C23.2084 43.2322 30.1725 43.2322 34.4283 43.2194C38.6841 43.2066 35.2021 43.1959 26.6905 43.1959C18.1788 43.1959 14.6968 43.2066 18.9526 43.2194Z" fill="#CE1212"/>
</svg>
